<mxfile host="app.diagrams.net" modified="2021-10-06T22:29:56.749Z" agent="5.0 (Windows NT 10.0; Win64; x64) AppleWebKit/537.36 (KHTML, like Gecko) Chrome/94.0.4606.61 Safari/537.36" etag="TzYCCD_skFEPelPkBSR1" version="15.3.7" type="github">
  <diagram id="R2lEEEUBdFMjLlhIrx00" name="Page-1">
    <mxGraphModel dx="868" dy="520" grid="1" gridSize="10" guides="1" tooltips="1" connect="1" arrows="1" fold="1" page="1" pageScale="1" pageWidth="850" pageHeight="1100" math="0" shadow="0" extFonts="Permanent Marker^https://fonts.googleapis.com/css?family=Permanent+Marker">
      <root>
        <mxCell id="0" />
        <mxCell id="1" parent="0" />
        <mxCell id="E16XBH-M-nEpriW6LHRJ-12" value="Empresa de Prod. Farmacêuticos" style="whiteSpace=wrap;html=1;align=center;" parent="1" vertex="1">
          <mxGeometry x="11" y="172" width="100" height="40" as="geometry" />
        </mxCell>
        <mxCell id="E16XBH-M-nEpriW6LHRJ-13" value="Capta" style="shape=rhombus;perimeter=rhombusPerimeter;whiteSpace=wrap;html=1;align=center;" parent="1" vertex="1">
          <mxGeometry x="183" y="162" width="120" height="60" as="geometry" />
        </mxCell>
        <mxCell id="E16XBH-M-nEpriW6LHRJ-14" value="Pedidos de Compras" style="whiteSpace=wrap;html=1;align=center;" parent="1" vertex="1">
          <mxGeometry x="363" y="172" width="100" height="40" as="geometry" />
        </mxCell>
        <mxCell id="E16XBH-M-nEpriW6LHRJ-15" value="" style="endArrow=none;html=1;rounded=0;exitX=1;exitY=0.5;exitDx=0;exitDy=0;" parent="1" source="E16XBH-M-nEpriW6LHRJ-12" target="E16XBH-M-nEpriW6LHRJ-13" edge="1">
          <mxGeometry relative="1" as="geometry">
            <mxPoint x="103" y="272" as="sourcePoint" />
            <mxPoint x="263" y="272" as="targetPoint" />
          </mxGeometry>
        </mxCell>
        <mxCell id="E16XBH-M-nEpriW6LHRJ-16" value="1" style="resizable=0;html=1;align=right;verticalAlign=bottom;" parent="E16XBH-M-nEpriW6LHRJ-15" connectable="0" vertex="1">
          <mxGeometry x="1" relative="1" as="geometry">
            <mxPoint x="-64" as="offset" />
          </mxGeometry>
        </mxCell>
        <mxCell id="E16XBH-M-nEpriW6LHRJ-17" value="" style="endArrow=none;html=1;rounded=0;entryX=0;entryY=0.5;entryDx=0;entryDy=0;exitX=1;exitY=0.5;exitDx=0;exitDy=0;" parent="1" source="E16XBH-M-nEpriW6LHRJ-13" target="E16XBH-M-nEpriW6LHRJ-14" edge="1">
          <mxGeometry relative="1" as="geometry">
            <mxPoint x="-257" y="352" as="sourcePoint" />
            <mxPoint x="-97" y="352" as="targetPoint" />
          </mxGeometry>
        </mxCell>
        <mxCell id="E16XBH-M-nEpriW6LHRJ-18" value="N" style="resizable=0;html=1;align=right;verticalAlign=bottom;" parent="E16XBH-M-nEpriW6LHRJ-17" connectable="0" vertex="1">
          <mxGeometry x="1" relative="1" as="geometry">
            <mxPoint x="-2" as="offset" />
          </mxGeometry>
        </mxCell>
        <mxCell id="E16XBH-M-nEpriW6LHRJ-19" value="Farmácias" style="whiteSpace=wrap;html=1;align=center;" parent="1" vertex="1">
          <mxGeometry x="439" y="770" width="100" height="40" as="geometry" />
        </mxCell>
        <mxCell id="E16XBH-M-nEpriW6LHRJ-20" value="Drograrias" style="whiteSpace=wrap;html=1;align=center;" parent="1" vertex="1">
          <mxGeometry x="287.5" y="770" width="100" height="40" as="geometry" />
        </mxCell>
        <mxCell id="E16XBH-M-nEpriW6LHRJ-21" value="" style="triangle;whiteSpace=wrap;html=1;rotation=-90;" parent="1" vertex="1">
          <mxGeometry x="390.5" y="650" width="45" height="60" as="geometry" />
        </mxCell>
        <mxCell id="E16XBH-M-nEpriW6LHRJ-22" value="" style="endArrow=none;html=1;rounded=0;entryX=1;entryY=0.5;entryDx=0;entryDy=0;exitX=0.5;exitY=1;exitDx=0;exitDy=0;" parent="1" source="E16XBH-M-nEpriW6LHRJ-26" target="E16XBH-M-nEpriW6LHRJ-21" edge="1">
          <mxGeometry relative="1" as="geometry">
            <mxPoint x="470" y="410" as="sourcePoint" />
            <mxPoint x="373" y="420" as="targetPoint" />
          </mxGeometry>
        </mxCell>
        <mxCell id="E16XBH-M-nEpriW6LHRJ-24" value="" style="endArrow=none;html=1;rounded=0;entryX=0.5;entryY=0;entryDx=0;entryDy=0;exitX=0.5;exitY=1;exitDx=0;exitDy=0;" parent="1" source="E16XBH-M-nEpriW6LHRJ-21" target="E16XBH-M-nEpriW6LHRJ-19" edge="1">
          <mxGeometry relative="1" as="geometry">
            <mxPoint x="530" y="579.5" as="sourcePoint" />
            <mxPoint x="520" y="599.5" as="targetPoint" />
          </mxGeometry>
        </mxCell>
        <mxCell id="E16XBH-M-nEpriW6LHRJ-25" value="" style="endArrow=none;html=1;rounded=0;entryX=0.5;entryY=0;entryDx=0;entryDy=0;exitX=0.5;exitY=0;exitDx=0;exitDy=0;" parent="1" source="E16XBH-M-nEpriW6LHRJ-21" target="E16XBH-M-nEpriW6LHRJ-20" edge="1">
          <mxGeometry relative="1" as="geometry">
            <mxPoint x="540" y="589.5" as="sourcePoint" />
            <mxPoint x="600" y="559.5" as="targetPoint" />
          </mxGeometry>
        </mxCell>
        <mxCell id="E16XBH-M-nEpriW6LHRJ-26" value="Cliente" style="whiteSpace=wrap;html=1;align=center;" parent="1" vertex="1">
          <mxGeometry x="363" y="570" width="100" height="40" as="geometry" />
        </mxCell>
        <mxCell id="E16XBH-M-nEpriW6LHRJ-27" value="Possui" style="shape=rhombus;perimeter=rhombusPerimeter;whiteSpace=wrap;html=1;align=center;" parent="1" vertex="1">
          <mxGeometry x="187.5" y="560" width="120" height="60" as="geometry" />
        </mxCell>
        <mxCell id="E16XBH-M-nEpriW6LHRJ-28" value="Ficha cadastral" style="whiteSpace=wrap;html=1;align=center;" parent="1" vertex="1">
          <mxGeometry x="27.5" y="570" width="100" height="40" as="geometry" />
        </mxCell>
        <mxCell id="E16XBH-M-nEpriW6LHRJ-29" value="" style="endArrow=none;html=1;rounded=0;exitX=1;exitY=0.5;exitDx=0;exitDy=0;entryX=0;entryY=0.5;entryDx=0;entryDy=0;" parent="1" source="E16XBH-M-nEpriW6LHRJ-28" target="E16XBH-M-nEpriW6LHRJ-27" edge="1">
          <mxGeometry relative="1" as="geometry">
            <mxPoint x="87.5" y="330" as="sourcePoint" />
            <mxPoint x="160.5" y="330" as="targetPoint" />
          </mxGeometry>
        </mxCell>
        <mxCell id="E16XBH-M-nEpriW6LHRJ-30" value="1" style="resizable=0;html=1;align=right;verticalAlign=bottom;" parent="E16XBH-M-nEpriW6LHRJ-29" connectable="0" vertex="1">
          <mxGeometry x="1" relative="1" as="geometry">
            <mxPoint x="-49" as="offset" />
          </mxGeometry>
        </mxCell>
        <mxCell id="E16XBH-M-nEpriW6LHRJ-31" value="" style="endArrow=none;html=1;rounded=0;entryX=0;entryY=0.5;entryDx=0;entryDy=0;exitX=1;exitY=0.5;exitDx=0;exitDy=0;" parent="1" source="E16XBH-M-nEpriW6LHRJ-27" target="E16XBH-M-nEpriW6LHRJ-26" edge="1">
          <mxGeometry relative="1" as="geometry">
            <mxPoint x="-182.5" y="450" as="sourcePoint" />
            <mxPoint x="-22.5" y="450" as="targetPoint" />
          </mxGeometry>
        </mxCell>
        <mxCell id="E16XBH-M-nEpriW6LHRJ-32" value="1" style="resizable=0;html=1;align=right;verticalAlign=bottom;" parent="E16XBH-M-nEpriW6LHRJ-31" connectable="0" vertex="1">
          <mxGeometry x="1" relative="1" as="geometry">
            <mxPoint x="-2" as="offset" />
          </mxGeometry>
        </mxCell>
        <mxCell id="E16XBH-M-nEpriW6LHRJ-49" style="edgeStyle=orthogonalEdgeStyle;rounded=0;orthogonalLoop=1;jettySize=auto;html=1;exitX=0;exitY=0.5;exitDx=0;exitDy=0;endArrow=none;endFill=0;entryX=1;entryY=0.25;entryDx=0;entryDy=0;" parent="1" source="E16XBH-M-nEpriW6LHRJ-33" target="E16XBH-M-nEpriW6LHRJ-26" edge="1">
          <mxGeometry relative="1" as="geometry">
            <mxPoint x="466" y="580" as="targetPoint" />
            <Array as="points">
              <mxPoint x="466" y="570" />
              <mxPoint x="466" y="580" />
            </Array>
          </mxGeometry>
        </mxCell>
        <mxCell id="E16XBH-M-nEpriW6LHRJ-33" value="Nome" style="ellipse;html=1;align=left;spacingLeft=30;" parent="1" vertex="1">
          <mxGeometry x="474" y="560" width="30" height="20" as="geometry" />
        </mxCell>
        <mxCell id="E16XBH-M-nEpriW6LHRJ-50" style="edgeStyle=orthogonalEdgeStyle;rounded=0;orthogonalLoop=1;jettySize=auto;html=1;exitX=0;exitY=0.5;exitDx=0;exitDy=0;entryX=1;entryY=0.5;entryDx=0;entryDy=0;endArrow=none;endFill=0;" parent="1" source="E16XBH-M-nEpriW6LHRJ-34" target="E16XBH-M-nEpriW6LHRJ-26" edge="1">
          <mxGeometry relative="1" as="geometry" />
        </mxCell>
        <mxCell id="E16XBH-M-nEpriW6LHRJ-34" value="&lt;u&gt;CNPJ&lt;/u&gt;" style="ellipse;html=1;align=left;spacingLeft=30;" parent="1" vertex="1">
          <mxGeometry x="504" y="580" width="30" height="20" as="geometry" />
        </mxCell>
        <mxCell id="E16XBH-M-nEpriW6LHRJ-52" style="edgeStyle=orthogonalEdgeStyle;rounded=0;orthogonalLoop=1;jettySize=auto;html=1;exitX=0;exitY=0.5;exitDx=0;exitDy=0;entryX=1;entryY=1;entryDx=0;entryDy=0;endArrow=none;endFill=0;" parent="1" source="E16XBH-M-nEpriW6LHRJ-35" target="E16XBH-M-nEpriW6LHRJ-26" edge="1">
          <mxGeometry relative="1" as="geometry">
            <Array as="points">
              <mxPoint x="476" y="630" />
              <mxPoint x="476" y="605" />
              <mxPoint x="463" y="605" />
            </Array>
          </mxGeometry>
        </mxCell>
        <mxCell id="E16XBH-M-nEpriW6LHRJ-35" value="Endereço" style="ellipse;html=1;align=left;spacingLeft=30;" parent="1" vertex="1">
          <mxGeometry x="564" y="620" width="30" height="20" as="geometry" />
        </mxCell>
        <mxCell id="E16XBH-M-nEpriW6LHRJ-46" style="edgeStyle=orthogonalEdgeStyle;rounded=0;orthogonalLoop=1;jettySize=auto;html=1;exitX=1;exitY=0.5;exitDx=0;exitDy=0;entryX=0.5;entryY=1;entryDx=0;entryDy=0;endArrow=none;endFill=0;" parent="1" source="E16XBH-M-nEpriW6LHRJ-36" target="E16XBH-M-nEpriW6LHRJ-35" edge="1">
          <mxGeometry relative="1" as="geometry" />
        </mxCell>
        <mxCell id="E16XBH-M-nEpriW6LHRJ-36" value="Cidade" style="ellipse;html=1;align=right;spacingLeft=0;spacingRight=29;" parent="1" vertex="1">
          <mxGeometry x="539" y="650" width="30" height="20" as="geometry" />
        </mxCell>
        <mxCell id="E16XBH-M-nEpriW6LHRJ-47" style="edgeStyle=orthogonalEdgeStyle;rounded=0;orthogonalLoop=1;jettySize=auto;html=1;exitX=1;exitY=0.5;exitDx=0;exitDy=0;entryX=0.5;entryY=1;entryDx=0;entryDy=0;endArrow=none;endFill=0;" parent="1" source="E16XBH-M-nEpriW6LHRJ-37" target="E16XBH-M-nEpriW6LHRJ-35" edge="1">
          <mxGeometry relative="1" as="geometry">
            <Array as="points">
              <mxPoint x="579" y="690" />
            </Array>
          </mxGeometry>
        </mxCell>
        <mxCell id="E16XBH-M-nEpriW6LHRJ-37" value="Estado" style="ellipse;html=1;align=right;spacingLeft=0;spacingRight=30;" parent="1" vertex="1">
          <mxGeometry x="539" y="680" width="30" height="20" as="geometry" />
        </mxCell>
        <mxCell id="E16XBH-M-nEpriW6LHRJ-48" style="edgeStyle=orthogonalEdgeStyle;rounded=0;orthogonalLoop=1;jettySize=auto;html=1;exitX=1;exitY=0.5;exitDx=0;exitDy=0;endArrow=none;endFill=0;" parent="1" source="E16XBH-M-nEpriW6LHRJ-40" target="E16XBH-M-nEpriW6LHRJ-35" edge="1">
          <mxGeometry relative="1" as="geometry">
            <Array as="points">
              <mxPoint x="579" y="720" />
            </Array>
          </mxGeometry>
        </mxCell>
        <mxCell id="E16XBH-M-nEpriW6LHRJ-40" value="CEP" style="ellipse;html=1;align=right;spacingLeft=0;spacingRight=30;" parent="1" vertex="1">
          <mxGeometry x="539" y="710" width="30" height="20" as="geometry" />
        </mxCell>
        <mxCell id="E16XBH-M-nEpriW6LHRJ-51" style="edgeStyle=orthogonalEdgeStyle;rounded=0;orthogonalLoop=1;jettySize=auto;html=1;exitX=0;exitY=0.5;exitDx=0;exitDy=0;entryX=1;entryY=0.75;entryDx=0;entryDy=0;endArrow=none;endFill=0;" parent="1" target="E16XBH-M-nEpriW6LHRJ-26" edge="1">
          <mxGeometry relative="1" as="geometry">
            <mxPoint x="534" y="610" as="sourcePoint" />
          </mxGeometry>
        </mxCell>
        <mxCell id="E16XBH-M-nEpriW6LHRJ-53" value="Escolhe" style="shape=rhombus;perimeter=rhombusPerimeter;whiteSpace=wrap;html=1;align=center;" parent="1" vertex="1">
          <mxGeometry x="353" y="460" width="120" height="60" as="geometry" />
        </mxCell>
        <mxCell id="E16XBH-M-nEpriW6LHRJ-54" value="" style="endArrow=none;html=1;rounded=0;entryX=0.5;entryY=0;entryDx=0;entryDy=0;exitX=0.5;exitY=1;exitDx=0;exitDy=0;" parent="1" source="E16XBH-M-nEpriW6LHRJ-53" target="E16XBH-M-nEpriW6LHRJ-26" edge="1">
          <mxGeometry relative="1" as="geometry">
            <mxPoint x="317.5" y="600" as="sourcePoint" />
            <mxPoint x="373" y="600" as="targetPoint" />
          </mxGeometry>
        </mxCell>
        <mxCell id="E16XBH-M-nEpriW6LHRJ-55" value="1" style="resizable=0;html=1;align=right;verticalAlign=bottom;" parent="E16XBH-M-nEpriW6LHRJ-54" connectable="0" vertex="1">
          <mxGeometry x="1" relative="1" as="geometry">
            <mxPoint x="11" as="offset" />
          </mxGeometry>
        </mxCell>
        <mxCell id="E16XBH-M-nEpriW6LHRJ-56" value="" style="endArrow=none;html=1;rounded=0;entryX=0.5;entryY=1;entryDx=0;entryDy=0;exitX=0.5;exitY=0;exitDx=0;exitDy=0;" parent="1" source="E16XBH-M-nEpriW6LHRJ-53" target="E16XBH-M-nEpriW6LHRJ-58" edge="1">
          <mxGeometry relative="1" as="geometry">
            <mxPoint x="270.5" y="159.9999999999999" as="sourcePoint" />
            <mxPoint x="330.5" y="159.9999999999999" as="targetPoint" />
          </mxGeometry>
        </mxCell>
        <mxCell id="E16XBH-M-nEpriW6LHRJ-57" value="N" style="resizable=0;html=1;align=right;verticalAlign=bottom;" parent="E16XBH-M-nEpriW6LHRJ-56" connectable="0" vertex="1">
          <mxGeometry x="1" relative="1" as="geometry">
            <mxPoint x="-2" as="offset" />
          </mxGeometry>
        </mxCell>
        <mxCell id="E16XBH-M-nEpriW6LHRJ-58" value="Medicamento" style="whiteSpace=wrap;html=1;align=center;" parent="1" vertex="1">
          <mxGeometry x="363" y="370" width="100" height="40" as="geometry" />
        </mxCell>
        <mxCell id="E16XBH-M-nEpriW6LHRJ-59" value="N" style="resizable=0;html=1;align=right;verticalAlign=bottom;" parent="1" connectable="0" vertex="1">
          <mxGeometry x="424.5" y="427.9999999999999" as="geometry" />
        </mxCell>
        <mxCell id="E16XBH-M-nEpriW6LHRJ-61" value="Genérico" style="whiteSpace=wrap;html=1;align=center;" parent="1" vertex="1">
          <mxGeometry x="550.5" y="331" width="100" height="40" as="geometry" />
        </mxCell>
        <mxCell id="E16XBH-M-nEpriW6LHRJ-62" value="De marca" style="whiteSpace=wrap;html=1;align=center;" parent="1" vertex="1">
          <mxGeometry x="550.5" y="409" width="100" height="40" as="geometry" />
        </mxCell>
        <mxCell id="E16XBH-M-nEpriW6LHRJ-63" value="" style="triangle;whiteSpace=wrap;html=1;rotation=-180;" parent="1" vertex="1">
          <mxGeometry x="492" y="360" width="45" height="60" as="geometry" />
        </mxCell>
        <mxCell id="E16XBH-M-nEpriW6LHRJ-64" value="" style="endArrow=none;html=1;rounded=0;entryX=1;entryY=0.5;entryDx=0;entryDy=0;exitX=1;exitY=0.5;exitDx=0;exitDy=0;" parent="1" source="E16XBH-M-nEpriW6LHRJ-58" target="E16XBH-M-nEpriW6LHRJ-63" edge="1">
          <mxGeometry relative="1" as="geometry">
            <mxPoint x="423" y="620" as="sourcePoint" />
            <mxPoint x="423" y="667.4999999999998" as="targetPoint" />
          </mxGeometry>
        </mxCell>
        <mxCell id="E16XBH-M-nEpriW6LHRJ-65" value="" style="endArrow=none;html=1;rounded=0;entryX=0;entryY=0.5;entryDx=0;entryDy=0;exitX=0.5;exitY=0;exitDx=0;exitDy=0;" parent="1" source="E16XBH-M-nEpriW6LHRJ-63" target="E16XBH-M-nEpriW6LHRJ-62" edge="1">
          <mxGeometry relative="1" as="geometry">
            <mxPoint x="473" y="400" as="sourcePoint" />
            <mxPoint x="502" y="400" as="targetPoint" />
          </mxGeometry>
        </mxCell>
        <mxCell id="E16XBH-M-nEpriW6LHRJ-66" value="" style="endArrow=none;html=1;rounded=0;entryX=0;entryY=0.5;entryDx=0;entryDy=0;exitX=0.5;exitY=1;exitDx=0;exitDy=0;" parent="1" source="E16XBH-M-nEpriW6LHRJ-63" target="E16XBH-M-nEpriW6LHRJ-61" edge="1">
          <mxGeometry relative="1" as="geometry">
            <mxPoint x="537.5" y="360" as="sourcePoint" />
            <mxPoint x="502" y="400" as="targetPoint" />
          </mxGeometry>
        </mxCell>
        <mxCell id="E16XBH-M-nEpriW6LHRJ-67" value="Telefone" style="ellipse;shape=doubleEllipse;margin=3;whiteSpace=wrap;html=1;align=left;spacingLeft=31;" parent="1" vertex="1">
          <mxGeometry x="534" y="600" width="35" height="20" as="geometry" />
        </mxCell>
        <mxCell id="E16XBH-M-nEpriW6LHRJ-68" value="Faz" style="shape=rhombus;perimeter=rhombusPerimeter;whiteSpace=wrap;html=1;align=center;" parent="1" vertex="1">
          <mxGeometry x="187.5" y="360" width="120" height="60" as="geometry" />
        </mxCell>
        <mxCell id="E16XBH-M-nEpriW6LHRJ-69" value="" style="endArrow=none;html=1;rounded=0;entryX=0;entryY=0;entryDx=0;entryDy=0;exitX=0.5;exitY=1;exitDx=0;exitDy=0;" parent="1" source="E16XBH-M-nEpriW6LHRJ-68" target="E16XBH-M-nEpriW6LHRJ-26" edge="1">
          <mxGeometry relative="1" as="geometry">
            <mxPoint x="317.5" y="600" as="sourcePoint" />
            <mxPoint x="373" y="600" as="targetPoint" />
          </mxGeometry>
        </mxCell>
        <mxCell id="E16XBH-M-nEpriW6LHRJ-70" value="1" style="resizable=0;html=1;align=right;verticalAlign=bottom;" parent="E16XBH-M-nEpriW6LHRJ-69" connectable="0" vertex="1">
          <mxGeometry x="1" relative="1" as="geometry">
            <mxPoint x="1" y="-4" as="offset" />
          </mxGeometry>
        </mxCell>
        <mxCell id="E16XBH-M-nEpriW6LHRJ-75" style="edgeStyle=orthogonalEdgeStyle;rounded=0;orthogonalLoop=1;jettySize=auto;html=1;exitX=0.5;exitY=1;exitDx=0;exitDy=0;entryX=0.75;entryY=0;entryDx=0;entryDy=0;endArrow=none;endFill=0;" parent="1" source="E16XBH-M-nEpriW6LHRJ-73" target="E16XBH-M-nEpriW6LHRJ-14" edge="1">
          <mxGeometry relative="1" as="geometry" />
        </mxCell>
        <mxCell id="E16XBH-M-nEpriW6LHRJ-73" value="Preços" style="ellipse;whiteSpace=wrap;html=1;align=left;dashed=1;spacingLeft=30;" parent="1" vertex="1">
          <mxGeometry x="423" y="133" width="30" height="20" as="geometry" />
        </mxCell>
        <mxCell id="E16XBH-M-nEpriW6LHRJ-78" style="edgeStyle=orthogonalEdgeStyle;rounded=0;orthogonalLoop=1;jettySize=auto;html=1;exitX=0.5;exitY=1;exitDx=0;exitDy=0;entryX=0.455;entryY=-0.009;entryDx=0;entryDy=0;entryPerimeter=0;endArrow=none;endFill=0;" parent="1" source="E16XBH-M-nEpriW6LHRJ-77" target="E16XBH-M-nEpriW6LHRJ-14" edge="1">
          <mxGeometry relative="1" as="geometry" />
        </mxCell>
        <mxCell id="E16XBH-M-nEpriW6LHRJ-77" value="Nome do Cliente" style="ellipse;html=1;align=left;spacingLeft=30;" parent="1" vertex="1">
          <mxGeometry x="393" y="110" width="30" height="20" as="geometry" />
        </mxCell>
        <mxCell id="E16XBH-M-nEpriW6LHRJ-80" style="edgeStyle=orthogonalEdgeStyle;rounded=0;orthogonalLoop=1;jettySize=auto;html=1;exitX=0.5;exitY=1;exitDx=0;exitDy=0;entryX=0.153;entryY=0.017;entryDx=0;entryDy=0;entryPerimeter=0;endArrow=none;endFill=0;" parent="1" source="E16XBH-M-nEpriW6LHRJ-79" target="E16XBH-M-nEpriW6LHRJ-14" edge="1">
          <mxGeometry relative="1" as="geometry" />
        </mxCell>
        <mxCell id="E16XBH-M-nEpriW6LHRJ-79" value="Data do pedido" style="ellipse;html=1;align=left;spacingLeft=30;" parent="1" vertex="1">
          <mxGeometry x="363" y="90" width="30" height="20" as="geometry" />
        </mxCell>
        <mxCell id="E16XBH-M-nEpriW6LHRJ-81" value="Tem" style="shape=rhombus;perimeter=rhombusPerimeter;whiteSpace=wrap;html=1;align=center;" parent="1" vertex="1">
          <mxGeometry x="353" y="260" width="120" height="60" as="geometry" />
        </mxCell>
        <mxCell id="E16XBH-M-nEpriW6LHRJ-83" value="" style="endArrow=none;html=1;rounded=0;entryX=0.5;entryY=1;entryDx=0;entryDy=0;exitX=0.5;exitY=0;exitDx=0;exitDy=0;" parent="1" source="E16XBH-M-nEpriW6LHRJ-58" target="E16XBH-M-nEpriW6LHRJ-81" edge="1">
          <mxGeometry relative="1" as="geometry">
            <mxPoint x="413.5" y="390" as="sourcePoint" />
            <mxPoint x="423" y="420" as="targetPoint" />
          </mxGeometry>
        </mxCell>
        <mxCell id="E16XBH-M-nEpriW6LHRJ-84" value="N" style="resizable=0;html=1;align=right;verticalAlign=bottom;" parent="E16XBH-M-nEpriW6LHRJ-83" connectable="0" vertex="1">
          <mxGeometry x="1" relative="1" as="geometry">
            <mxPoint x="-2" y="51" as="offset" />
          </mxGeometry>
        </mxCell>
        <mxCell id="E16XBH-M-nEpriW6LHRJ-85" value="" style="endArrow=none;html=1;rounded=0;entryX=0.5;entryY=1;entryDx=0;entryDy=0;exitX=0.5;exitY=0;exitDx=0;exitDy=0;" parent="1" source="E16XBH-M-nEpriW6LHRJ-81" target="E16XBH-M-nEpriW6LHRJ-14" edge="1">
          <mxGeometry relative="1" as="geometry">
            <mxPoint x="423.5" y="390" as="sourcePoint" />
            <mxPoint x="423" y="330" as="targetPoint" />
          </mxGeometry>
        </mxCell>
        <mxCell id="E16XBH-M-nEpriW6LHRJ-86" value="N" style="resizable=0;html=1;align=right;verticalAlign=bottom;" parent="E16XBH-M-nEpriW6LHRJ-85" connectable="0" vertex="1">
          <mxGeometry x="1" relative="1" as="geometry">
            <mxPoint x="-1" y="17" as="offset" />
          </mxGeometry>
        </mxCell>
        <mxCell id="E16XBH-M-nEpriW6LHRJ-87" value="" style="endArrow=none;html=1;rounded=0;entryX=0;entryY=1;entryDx=0;entryDy=0;exitX=0.5;exitY=0;exitDx=0;exitDy=0;" parent="1" source="E16XBH-M-nEpriW6LHRJ-68" target="E16XBH-M-nEpriW6LHRJ-14" edge="1">
          <mxGeometry relative="1" as="geometry">
            <mxPoint x="287.5" y="515" as="sourcePoint" />
            <mxPoint x="373" y="580" as="targetPoint" />
          </mxGeometry>
        </mxCell>
        <mxCell id="E16XBH-M-nEpriW6LHRJ-88" value="N" style="resizable=0;html=1;align=right;verticalAlign=bottom;" parent="E16XBH-M-nEpriW6LHRJ-87" connectable="0" vertex="1">
          <mxGeometry x="1" relative="1" as="geometry">
            <mxPoint x="-9" y="6" as="offset" />
          </mxGeometry>
        </mxCell>
        <mxCell id="E16XBH-M-nEpriW6LHRJ-95" style="edgeStyle=orthogonalEdgeStyle;rounded=0;orthogonalLoop=1;jettySize=auto;html=1;exitX=0;exitY=0.5;exitDx=0;exitDy=0;entryX=1;entryY=0.75;entryDx=0;entryDy=0;endArrow=none;endFill=0;" parent="1" source="E16XBH-M-nEpriW6LHRJ-91" target="E16XBH-M-nEpriW6LHRJ-61" edge="1">
          <mxGeometry relative="1" as="geometry" />
        </mxCell>
        <mxCell id="E16XBH-M-nEpriW6LHRJ-91" value="Validade" style="ellipse;html=1;align=left;spacingLeft=30;" parent="1" vertex="1">
          <mxGeometry x="677.5" y="350" width="30" height="20" as="geometry" />
        </mxCell>
        <mxCell id="E16XBH-M-nEpriW6LHRJ-96" style="edgeStyle=orthogonalEdgeStyle;rounded=0;orthogonalLoop=1;jettySize=auto;html=1;exitX=0;exitY=0.5;exitDx=0;exitDy=0;entryX=1;entryY=0.5;entryDx=0;entryDy=0;endArrow=none;endFill=0;" parent="1" source="E16XBH-M-nEpriW6LHRJ-92" target="E16XBH-M-nEpriW6LHRJ-61" edge="1">
          <mxGeometry relative="1" as="geometry">
            <Array as="points">
              <mxPoint x="679.5" y="340" />
              <mxPoint x="679.5" y="351" />
            </Array>
          </mxGeometry>
        </mxCell>
        <mxCell id="E16XBH-M-nEpriW6LHRJ-92" value="Tarja&lt;span style=&quot;color: rgba(0 , 0 , 0 , 0) ; font-family: monospace ; font-size: 0px&quot;&gt;%3CmxGraphModel%3E%3Croot%3E%3CmxCell%20id%3D%220%22%2F%3E%3CmxCell%20id%3D%221%22%20parent%3D%220%22%2F%3E%3CmxCell%20id%3D%222%22%20value%3D%22Validade%22%20style%3D%22ellipse%3Bhtml%3D1%3Balign%3Dleft%3BspacingLeft%3D30%3B%22%20vertex%3D%221%22%20parent%3D%221%22%3E%3CmxGeometry%20x%3D%22870%22%20y%3D%22280%22%20width%3D%2230%22%20height%3D%2220%22%20as%3D%22geometry%22%2F%3E%3C%2FmxCell%3E%3C%2Froot%3E%3C%2FmxGraphModel%3E&lt;/span&gt;" style="ellipse;html=1;align=left;spacingLeft=30;" parent="1" vertex="1">
          <mxGeometry x="707.5" y="330" width="30" height="20" as="geometry" />
        </mxCell>
        <mxCell id="E16XBH-M-nEpriW6LHRJ-97" style="edgeStyle=orthogonalEdgeStyle;rounded=0;orthogonalLoop=1;jettySize=auto;html=1;exitX=0;exitY=0.5;exitDx=0;exitDy=0;entryX=1;entryY=0.25;entryDx=0;entryDy=0;endArrow=none;endFill=0;" parent="1" source="E16XBH-M-nEpriW6LHRJ-93" target="E16XBH-M-nEpriW6LHRJ-61" edge="1">
          <mxGeometry relative="1" as="geometry">
            <Array as="points">
              <mxPoint x="667.5" y="321" />
              <mxPoint x="667.5" y="341" />
            </Array>
          </mxGeometry>
        </mxCell>
        <mxCell id="E16XBH-M-nEpriW6LHRJ-93" value="Laboratório" style="ellipse;html=1;align=left;spacingLeft=30;" parent="1" vertex="1">
          <mxGeometry x="737.5" y="311" width="30" height="20" as="geometry" />
        </mxCell>
        <mxCell id="E16XBH-M-nEpriW6LHRJ-98" style="edgeStyle=orthogonalEdgeStyle;rounded=0;orthogonalLoop=1;jettySize=auto;html=1;exitX=0;exitY=0.5;exitDx=0;exitDy=0;entryX=0.994;entryY=0.155;entryDx=0;entryDy=0;entryPerimeter=0;endArrow=none;endFill=0;" parent="1" source="E16XBH-M-nEpriW6LHRJ-94" target="E16XBH-M-nEpriW6LHRJ-61" edge="1">
          <mxGeometry relative="1" as="geometry">
            <Array as="points">
              <mxPoint x="657.5" y="300" />
              <mxPoint x="657.5" y="337" />
            </Array>
          </mxGeometry>
        </mxCell>
        <mxCell id="E16XBH-M-nEpriW6LHRJ-94" value="Nome" style="ellipse;html=1;align=left;spacingLeft=30;" parent="1" vertex="1">
          <mxGeometry x="767.5" y="290" width="30" height="20" as="geometry" />
        </mxCell>
        <mxCell id="E16XBH-M-nEpriW6LHRJ-102" style="edgeStyle=orthogonalEdgeStyle;rounded=0;orthogonalLoop=1;jettySize=auto;html=1;exitX=0;exitY=0.5;exitDx=0;exitDy=0;entryX=1;entryY=0.25;entryDx=0;entryDy=0;endArrow=none;endFill=0;" parent="1" source="E16XBH-M-nEpriW6LHRJ-99" target="E16XBH-M-nEpriW6LHRJ-62" edge="1">
          <mxGeometry relative="1" as="geometry" />
        </mxCell>
        <mxCell id="E16XBH-M-nEpriW6LHRJ-99" value="Principio ativo" style="ellipse;html=1;align=left;spacingLeft=30;" parent="1" vertex="1">
          <mxGeometry x="677.5" y="408" width="30" height="20" as="geometry" />
        </mxCell>
        <mxCell id="E16XBH-M-nEpriW6LHRJ-103" style="edgeStyle=orthogonalEdgeStyle;rounded=0;orthogonalLoop=1;jettySize=auto;html=1;exitX=0;exitY=0.5;exitDx=0;exitDy=0;entryX=1;entryY=0.5;entryDx=0;entryDy=0;endArrow=none;endFill=0;" parent="1" source="E16XBH-M-nEpriW6LHRJ-100" target="E16XBH-M-nEpriW6LHRJ-62" edge="1">
          <mxGeometry relative="1" as="geometry" />
        </mxCell>
        <mxCell id="E16XBH-M-nEpriW6LHRJ-100" value="Laboratório" style="ellipse;html=1;align=left;spacingLeft=30;" parent="1" vertex="1">
          <mxGeometry x="707.5" y="429" width="30" height="20" as="geometry" />
        </mxCell>
        <mxCell id="E16XBH-M-nEpriW6LHRJ-104" style="edgeStyle=orthogonalEdgeStyle;rounded=0;orthogonalLoop=1;jettySize=auto;html=1;exitX=0;exitY=0.5;exitDx=0;exitDy=0;entryX=1;entryY=0.75;entryDx=0;entryDy=0;endArrow=none;endFill=0;" parent="1" source="E16XBH-M-nEpriW6LHRJ-101" target="E16XBH-M-nEpriW6LHRJ-62" edge="1">
          <mxGeometry relative="1" as="geometry">
            <Array as="points">
              <mxPoint x="667.5" y="459" />
              <mxPoint x="667.5" y="439" />
            </Array>
          </mxGeometry>
        </mxCell>
        <mxCell id="E16XBH-M-nEpriW6LHRJ-101" value="Validade" style="ellipse;html=1;align=left;spacingLeft=30;" parent="1" vertex="1">
          <mxGeometry x="737.5" y="449" width="30" height="20" as="geometry" />
        </mxCell>
      </root>
    </mxGraphModel>
  </diagram>
</mxfile>
